<?xml version="1.0" encoding="UTF-8" standalone="no"?>
<svg
   xmlns:dc="http://purl.org/dc/elements/1.1/"
   xmlns:cc="http://creativecommons.org/ns#"
   xmlns:rdf="http://www.w3.org/1999/02/22-rdf-syntax-ns#"
   xmlns:svg="http://www.w3.org/2000/svg"
   xmlns="http://www.w3.org/2000/svg"
   xmlns:sodipodi="http://sodipodi.sourceforge.net/DTD/sodipodi-0.dtd"
   xmlns:inkscape="http://www.inkscape.org/namespaces/inkscape"
   width="512"
   height="512"
   viewBox="0 0 135.46666 135.46667"
   version="1.1"
   id="svg36"
   inkscape:version="1.0.1 (c497b03c, 2020-09-10)"
   sodipodi:docname="seath-background-tile.svg"
   inkscape:export-filename="/Users/john/seath/branding/graphics/seath-icon-monochrome.png"
   inkscape:export-xdpi="96.000008"
   inkscape:export-ydpi="96.000008">
  <defs
     id="defs30" />
  <sodipodi:namedview
     id="base"
     pagecolor="#ffffff"
     bordercolor="#666666"
     borderopacity="1.0"
     inkscape:pageopacity="0.0"
     inkscape:pageshadow="2"
     inkscape:zoom="1.5996094"
     inkscape:cx="256"
     inkscape:cy="256"
     inkscape:document-units="mm"
     inkscape:current-layer="layer4"
     inkscape:document-rotation="0"
     showgrid="false"
     units="px"
     inkscape:window-width="1920"
     inkscape:window-height="1027"
     inkscape:window-x="0"
     inkscape:window-y="25"
     inkscape:window-maximized="1" />
  <metadata
     id="metadata33">
    <rdf:RDF>
      <cc:Work
         rdf:about="">
        <dc:format>image/svg+xml</dc:format>
        <dc:type
           rdf:resource="http://purl.org/dc/dcmitype/StillImage" />
        <dc:title></dc:title>
      </cc:Work>
    </rdf:RDF>
  </metadata>
  <g
     inkscape:groupmode="layer"
     id="layer4"
     inkscape:label="Background"
     style="display:inline">
    <g
       inkscape:groupmode="layer"
       id="layer6"
       inkscape:label="Box"
       style="display:inline;opacity:0.996" />
    <g
       inkscape:groupmode="layer"
       id="layer7"
       inkscape:label="Shapes"
       style="display:inline">
      <g
         id="g869"
         transform="rotate(45,-54.363475,73.675673)"
         style="stroke:#2a1b06;stroke-width:0.2;stroke-linecap:round;stroke-miterlimit:4;stroke-dasharray:none;stroke-opacity:1">
        <path
           style="fill:none;stroke:#2a1b06;stroke-width:0.2;stroke-linecap:round;stroke-linejoin:miter;stroke-miterlimit:4;stroke-dasharray:none;stroke-opacity:1"
           d="m 72.178588,14.138349 v 14.643722 l -3.67951,1.535199 V 25.249758 L 66.829,24.302463 66.8222,18.406297 68.499037,17.383896 v -4.85692 l 3.67951,1.611373"
           id="path863" />
        <path
           style="fill:none;stroke:#2a1b06;stroke-width:0.2;stroke-linecap:round;stroke-linejoin:miter;stroke-miterlimit:4;stroke-dasharray:none;stroke-opacity:1"
           d="m 62.997875,12.526976 v 4.85692 l 1.676838,1.022401 -0.0068,5.896166 -1.670078,0.947295 V 30.31727 L 59.318364,28.782071 V 14.138349 l 3.679511,-1.611373"
           id="path865" />
      </g>
      <g
         id="g875"
         transform="rotate(45,76.162494,19.610036)"
         style="stroke:#2a1b06;stroke-width:0.2;stroke-linecap:round;stroke-miterlimit:4;stroke-dasharray:none;stroke-opacity:1">
        <path
           style="fill:none;stroke:#2a1b06;stroke-width:0.2;stroke-linecap:round;stroke-linejoin:miter;stroke-miterlimit:4;stroke-dasharray:none;stroke-opacity:1"
           d="m 72.178588,14.138349 v 14.643722 l -3.67951,1.535199 V 25.249758 L 66.829,24.302463 66.8222,18.406297 68.499037,17.383896 v -4.85692 l 3.67951,1.611373"
           id="path871" />
        <path
           style="fill:none;stroke:#2a1b06;stroke-width:0.2;stroke-linecap:round;stroke-linejoin:miter;stroke-miterlimit:4;stroke-dasharray:none;stroke-opacity:1"
           d="m 62.997875,12.526976 v 4.85692 l 1.676838,1.022401 -0.0068,5.896166 -1.670078,0.947295 V 30.31727 L 59.318364,28.782071 V 14.138349 l 3.679511,-1.611373"
           id="path873" />
      </g>
      <g
         id="g881"
         transform="rotate(45,66.263233,87.332607)"
         style="stroke:#2a1b06;stroke-width:0.2;stroke-linecap:round;stroke-miterlimit:4;stroke-dasharray:none;stroke-opacity:1">
        <path
           style="fill:none;stroke:#2a1b06;stroke-width:0.2;stroke-linecap:round;stroke-linejoin:miter;stroke-miterlimit:4;stroke-dasharray:none;stroke-opacity:1"
           d="m 72.178588,14.138349 v 14.643722 l -3.67951,1.535199 V 25.249758 L 66.829,24.302463 66.8222,18.406297 68.499037,17.383896 v -4.85692 l 3.67951,1.611373"
           id="path877" />
        <path
           style="fill:none;stroke:#2a1b06;stroke-width:0.2;stroke-linecap:round;stroke-linejoin:miter;stroke-miterlimit:4;stroke-dasharray:none;stroke-opacity:1"
           d="m 62.997875,12.526976 v 4.85692 l 1.676838,1.022401 -0.0068,5.896166 -1.670078,0.947295 V 30.31727 L 59.318364,28.782071 V 14.138349 l 3.679511,-1.611373"
           id="path879" />
      </g>
      <g
         id="g893"
         transform="rotate(45,21.037172,-21.178465)"
         style="stroke:#2a1b06;stroke-width:0.2;stroke-linecap:round;stroke-miterlimit:4;stroke-dasharray:none;stroke-opacity:1">
        <path
           style="fill:none;stroke:#2a1b06;stroke-width:0.2;stroke-linecap:round;stroke-linejoin:miter;stroke-miterlimit:4;stroke-dasharray:none;stroke-opacity:1"
           d="m 72.178588,14.138349 v 14.643722 l -3.67951,1.535199 V 25.249758 L 66.829,24.302463 66.8222,18.406297 68.499037,17.383896 v -4.85692 l 3.67951,1.611373"
           id="path889" />
        <path
           style="fill:none;stroke:#2a1b06;stroke-width:0.2;stroke-linecap:round;stroke-linejoin:miter;stroke-miterlimit:4;stroke-dasharray:none;stroke-opacity:1"
           d="m 62.997875,12.526976 v 4.85692 l 1.676838,1.022401 -0.0068,5.896166 -1.670078,0.947295 V 30.31727 L 59.318364,28.782071 V 14.138349 l 3.679511,-1.611373"
           id="path891" />
      </g>
      <g
         id="g969"
         transform="rotate(45,0.76183722,114.46417)"
         style="stroke:#2a1b06;stroke-width:0.2;stroke-linecap:round;stroke-miterlimit:4;stroke-dasharray:none;stroke-opacity:1">
        <path
           style="fill:none;stroke:#2a1b06;stroke-width:0.2;stroke-linecap:round;stroke-linejoin:miter;stroke-miterlimit:4;stroke-dasharray:none;stroke-opacity:1"
           d="m 72.178588,14.138349 v 14.643722 l -3.67951,1.535199 V 25.249758 L 66.829,24.302463 66.8222,18.406297 68.499037,17.383896 v -4.85692 l 3.67951,1.611373"
           id="path965" />
        <path
           style="fill:none;stroke:#2a1b06;stroke-width:0.2;stroke-linecap:round;stroke-linejoin:miter;stroke-miterlimit:4;stroke-dasharray:none;stroke-opacity:1"
           d="m 62.997875,12.526976 v 4.85692 l 1.676838,1.022401 -0.0068,5.896166 -1.670078,0.947295 V 30.31727 L 59.318364,28.782071 V 14.138349 l 3.679511,-1.611373"
           id="path967" />
      </g>
      <g
         id="g975"
         transform="rotate(45,-44.225824,5.8543524)"
         style="stroke:#2a1b06;stroke-width:0.2;stroke-linecap:round;stroke-miterlimit:4;stroke-dasharray:none;stroke-opacity:1">
        <path
           style="fill:none;stroke:#2a1b06;stroke-width:0.2;stroke-linecap:round;stroke-linejoin:miter;stroke-miterlimit:4;stroke-dasharray:none;stroke-opacity:1"
           d="m 72.178588,14.138349 v 14.643722 l -3.67951,1.535199 V 25.249758 L 66.829,24.302463 66.8222,18.406297 68.499037,17.383896 v -4.85692 l 3.67951,1.611373"
           id="path971" />
        <path
           style="fill:none;stroke:#2a1b06;stroke-width:0.2;stroke-linecap:round;stroke-linejoin:miter;stroke-miterlimit:4;stroke-dasharray:none;stroke-opacity:1"
           d="m 62.997875,12.526976 v 4.85692 l 1.676838,1.022401 -0.0068,5.896166 -1.670078,0.947295 V 30.31727 L 59.318364,28.782071 V 14.138349 l 3.679511,-1.611373"
           id="path973" />
      </g>
      <g
         id="g981"
         transform="rotate(45,10.899508,46.64285)"
         style="stroke:#2a1b06;stroke-width:0.2;stroke-linecap:round;stroke-miterlimit:4;stroke-dasharray:none;stroke-opacity:1">
        <path
           style="fill:none;stroke:#2a1b06;stroke-width:0.2;stroke-linecap:round;stroke-linejoin:miter;stroke-miterlimit:4;stroke-dasharray:none;stroke-opacity:1"
           d="m 72.178588,14.138349 v 14.643722 l -3.67951,1.535199 V 25.249758 L 66.829,24.302463 66.8222,18.406297 68.499037,17.383896 v -4.85692 l 3.67951,1.611373"
           id="path977" />
        <path
           style="fill:none;stroke:#2a1b06;stroke-width:0.2;stroke-linecap:round;stroke-linejoin:miter;stroke-miterlimit:4;stroke-dasharray:none;stroke-opacity:1"
           d="m 62.997875,12.526976 v 4.85692 l 1.676838,1.022401 -0.0068,5.896166 -1.670078,0.947295 V 30.31727 L 59.318364,28.782071 V 14.138349 l 3.679511,-1.611373"
           id="path979" />
      </g>
      <g
         id="g1009"
         transform="rotate(-45,89.692974,28.928126)"
         style="stroke:#2a1b06;stroke-width:0.2;stroke-linecap:round;stroke-miterlimit:4;stroke-dasharray:none;stroke-opacity:1">
        <path
           style="fill:none;stroke:#2a1b06;stroke-width:0.2;stroke-linecap:round;stroke-linejoin:miter;stroke-miterlimit:4;stroke-dasharray:none;stroke-opacity:1"
           d="m 72.178588,14.138349 v 14.643722 l -3.67951,1.535199 V 25.249758 L 66.829,24.302463 66.8222,18.406297 68.499037,17.383896 v -4.85692 l 3.67951,1.611373"
           id="path1005" />
        <path
           style="fill:none;stroke:#2a1b06;stroke-width:0.2;stroke-linecap:round;stroke-linejoin:miter;stroke-miterlimit:4;stroke-dasharray:none;stroke-opacity:1"
           d="m 62.997875,12.526976 v 4.85692 l 1.676838,1.022401 -0.0068,5.896166 -1.670078,0.947295 V 30.31727 L 59.318364,28.782071 V 14.138349 l 3.679511,-1.611373"
           id="path1007" />
      </g>
      <g
         id="g1015"
         transform="rotate(-45,154.95597,55.960933)"
         style="stroke:#2a1b06;stroke-width:0.2;stroke-linecap:round;stroke-miterlimit:4;stroke-dasharray:none;stroke-opacity:1">
        <path
           style="fill:none;stroke:#2a1b06;stroke-width:0.2;stroke-linecap:round;stroke-linejoin:miter;stroke-miterlimit:4;stroke-dasharray:none;stroke-opacity:1"
           d="m 72.178588,14.138349 v 14.643722 l -3.67951,1.535199 V 25.249758 L 66.829,24.302463 66.8222,18.406297 68.499037,17.383896 v -4.85692 l 3.67951,1.611373"
           id="path1011" />
        <path
           style="fill:none;stroke:#2a1b06;stroke-width:0.2;stroke-linecap:round;stroke-linejoin:miter;stroke-miterlimit:4;stroke-dasharray:none;stroke-opacity:1"
           d="m 62.997875,12.526976 v 4.85692 l 1.676838,1.022401 -0.0068,5.896166 -1.670078,0.947295 V 30.31727 L 59.318364,28.782071 V 14.138349 l 3.679511,-1.611373"
           id="path1013" />
      </g>
      <g
         id="g1021"
         transform="rotate(-45,99.830637,96.749441)"
         style="stroke:#2a1b06;stroke-width:0.2;stroke-linecap:round;stroke-miterlimit:4;stroke-dasharray:none;stroke-opacity:1">
        <path
           style="fill:none;stroke:#2a1b06;stroke-width:0.2;stroke-linecap:round;stroke-linejoin:miter;stroke-miterlimit:4;stroke-dasharray:none;stroke-opacity:1"
           d="m 72.178588,14.138349 v 14.643722 l -3.67951,1.535199 V 25.249758 L 66.829,24.302463 66.8222,18.406297 68.499037,17.383896 v -4.85692 l 3.67951,1.611373"
           id="path1017" />
        <path
           style="fill:none;stroke:#2a1b06;stroke-width:0.2;stroke-linecap:round;stroke-linejoin:miter;stroke-miterlimit:4;stroke-dasharray:none;stroke-opacity:1"
           d="m 62.997875,12.526976 v 4.85692 l 1.676838,1.022401 -0.0068,5.896166 -1.670078,0.947295 V 30.31727 L 59.318364,28.782071 V 14.138349 l 3.679511,-1.611373"
           id="path1019" />
      </g>
      <g
         id="g1027"
         transform="rotate(-45,144.8183,-11.860382)"
         style="stroke:#2a1b06;stroke-width:0.2;stroke-linecap:round;stroke-miterlimit:4;stroke-dasharray:none;stroke-opacity:1">
        <path
           style="fill:none;stroke:#2a1b06;stroke-width:0.2;stroke-linecap:round;stroke-linejoin:miter;stroke-miterlimit:4;stroke-dasharray:none;stroke-opacity:1"
           d="m 72.178588,14.138349 v 14.643722 l -3.67951,1.535199 V 25.249758 L 66.829,24.302463 66.8222,18.406297 68.499037,17.383896 v -4.85692 l 3.67951,1.611373"
           id="path1023" />
        <path
           style="fill:none;stroke:#2a1b06;stroke-width:0.2;stroke-linecap:round;stroke-linejoin:miter;stroke-miterlimit:4;stroke-dasharray:none;stroke-opacity:1"
           d="m 62.997875,12.526976 v 4.85692 l 1.676838,1.022401 -0.0068,5.896166 -1.670078,0.947295 V 30.31727 L 59.318364,28.782071 V 14.138349 l 3.679511,-1.611373"
           id="path1025" />
      </g>
      <g
         id="g1067"
         transform="rotate(-45,165.09362,123.78226)"
         style="stroke:#2a1b06;stroke-width:0.2;stroke-linecap:round;stroke-miterlimit:4;stroke-dasharray:none;stroke-opacity:1">
        <path
           style="fill:none;stroke:#2a1b06;stroke-width:0.2;stroke-linecap:round;stroke-linejoin:miter;stroke-miterlimit:4;stroke-dasharray:none;stroke-opacity:1"
           d="m 72.178588,14.138349 v 14.643722 l -3.67951,1.535199 V 25.249758 L 66.829,24.302463 66.8222,18.406297 68.499037,17.383896 v -4.85692 l 3.67951,1.611373"
           id="path1063" />
        <path
           style="fill:none;stroke:#2a1b06;stroke-width:0.2;stroke-linecap:round;stroke-linejoin:miter;stroke-miterlimit:4;stroke-dasharray:none;stroke-opacity:1"
           d="m 62.997875,12.526976 v 4.85692 l 1.676838,1.022401 -0.0068,5.896166 -1.670078,0.947295 V 30.31727 L 59.318364,28.782071 V 14.138349 l 3.679511,-1.611373"
           id="path1065" />
      </g>
      <g
         id="g1073"
         transform="rotate(45,53.668664,-34.694872)"
         style="stroke:#2a1b06;stroke-width:0.2;stroke-linecap:round;stroke-miterlimit:4;stroke-dasharray:none;stroke-opacity:1">
        <path
           style="fill:none;stroke:#2a1b06;stroke-width:0.2;stroke-linecap:round;stroke-linejoin:miter;stroke-miterlimit:4;stroke-dasharray:none;stroke-opacity:1"
           d="m 72.178588,14.138349 v 14.643722 l -3.67951,1.535199 V 25.249758 L 66.829,24.302463 66.8222,18.406297 68.499037,17.383896 v -4.85692 l 3.67951,1.611373"
           id="path1069" />
        <path
           style="fill:none;stroke:#2a1b06;stroke-width:0.2;stroke-linecap:round;stroke-linejoin:miter;stroke-miterlimit:4;stroke-dasharray:none;stroke-opacity:1"
           d="m 62.997875,12.526976 v 4.85692 l 1.676838,1.022401 -0.0068,5.896166 -1.670078,0.947295 V 30.31727 L 59.318364,28.782071 V 14.138349 l 3.679511,-1.611373"
           id="path1071" />
      </g>
      <g
         id="g1079"
         transform="rotate(-45,79.555313,-38.893194)"
         style="stroke:#2a1b06;stroke-width:0.2;stroke-linecap:round;stroke-miterlimit:4;stroke-dasharray:none;stroke-opacity:1">
        <path
           style="fill:none;stroke:#2a1b06;stroke-width:0.2;stroke-linecap:round;stroke-linejoin:miter;stroke-miterlimit:4;stroke-dasharray:none;stroke-opacity:1"
           d="m 72.178588,14.138349 v 14.643722 l -3.67951,1.535199 V 25.249758 L 66.829,24.302463 66.8222,18.406297 68.499037,17.383896 v -4.85692 l 3.67951,1.611373"
           id="path1075" />
        <path
           style="fill:none;stroke:#2a1b06;stroke-width:0.2;stroke-linecap:round;stroke-linejoin:miter;stroke-miterlimit:4;stroke-dasharray:none;stroke-opacity:1"
           d="m 62.997875,12.526976 v 4.85692 l 1.676838,1.022401 -0.0068,5.896166 -1.670078,0.947295 V 30.31727 L 59.318364,28.782071 V 14.138349 l 3.679511,-1.611373"
           id="path1077" />
      </g>
      <g
         id="g1085"
         transform="rotate(-45,210.08129,15.172423)"
         style="stroke:#2a1b06;stroke-width:0.2;stroke-linecap:round;stroke-miterlimit:4;stroke-dasharray:none;stroke-opacity:1">
        <path
           style="fill:none;stroke:#2a1b06;stroke-width:0.2;stroke-linecap:round;stroke-linejoin:miter;stroke-miterlimit:4;stroke-dasharray:none;stroke-opacity:1"
           d="m 72.178588,14.138349 v 14.643722 l -3.67951,1.535199 V 25.249758 L 66.829,24.302463 66.8222,18.406297 68.499037,17.383896 v -4.85692 l 3.67951,1.611373"
           id="path1081" />
        <path
           style="fill:none;stroke:#2a1b06;stroke-width:0.2;stroke-linecap:round;stroke-linejoin:miter;stroke-miterlimit:4;stroke-dasharray:none;stroke-opacity:1"
           d="m 62.997875,12.526976 v 4.85692 l 1.676838,1.022401 -0.0068,5.896166 -1.670078,0.947295 V 30.31727 L 59.318364,28.782071 V 14.138349 l 3.679511,-1.611373"
           id="path1083" />
      </g>
    </g>
  </g>
</svg>
