<?xml version="1.0" encoding="UTF-8" standalone="no"?>
<svg
   xmlns:osb="http://www.openswatchbook.org/uri/2009/osb"
   xmlns:dc="http://purl.org/dc/elements/1.1/"
   xmlns:cc="http://creativecommons.org/ns#"
   xmlns:rdf="http://www.w3.org/1999/02/22-rdf-syntax-ns#"
   xmlns:svg="http://www.w3.org/2000/svg"
   xmlns="http://www.w3.org/2000/svg"
   xmlns:xlink="http://www.w3.org/1999/xlink"
   xmlns:sodipodi="http://sodipodi.sourceforge.net/DTD/sodipodi-0.dtd"
   xmlns:inkscape="http://www.inkscape.org/namespaces/inkscape"
   width="1024"
   height="512"
   viewBox="0 0 270.93332 135.46667"
   version="1.1"
   id="svg8"
   inkscape:version="1.0.1 (c497b03c, 2020-09-10)"
   sodipodi:docname="seath-branding.svg"
   inkscape:export-filename="/Users/john/seath/branding/graphics/seath-branding.png"
   inkscape:export-xdpi="96"
   inkscape:export-ydpi="96">
  <defs
     id="defs2">
    <linearGradient
       inkscape:collect="always"
       id="linearGradient7813">
      <stop
         style="stop-color:#000000;stop-opacity:0.93951613"
         offset="0"
         id="stop7809" />
      <stop
         style="stop-color:#000000;stop-opacity:0;"
         offset="1"
         id="stop7811" />
    </linearGradient>
    <linearGradient
       id="linearGradient7079"
       osb:paint="solid">
      <stop
         style="stop-color:#ffffff;stop-opacity:1;"
         offset="0"
         id="stop7077" />
    </linearGradient>
    <clipPath
       clipPathUnits="userSpaceOnUse"
       id="clipPath7089">
      <use
         x="0"
         y="0"
         xlink:href="#g7085"
         id="use7091" />
    </clipPath>
    <filter
       inkscape:collect="always"
       style="color-interpolation-filters:sRGB"
       id="filter7105"
       x="-0.018248881"
       width="1.0364978"
       y="-0.024331841"
       height="1.0486637">
      <feGaussianBlur
         inkscape:collect="always"
         stdDeviation="2.0600958"
         id="feGaussianBlur7107" />
    </filter>
    <linearGradient
       inkscape:collect="always"
       xlink:href="#linearGradient7813"
       id="linearGradient7815"
       x1="155.93726"
       y1="56.892136"
       x2="15.34127"
       y2="111.13067"
       gradientUnits="userSpaceOnUse" />
  </defs>
  <sodipodi:namedview
     id="base"
     pagecolor="#ffffff"
     bordercolor="#666666"
     borderopacity="1.0"
     inkscape:pageopacity="0.0"
     inkscape:pageshadow="2"
     inkscape:zoom="1.0664063"
     inkscape:cx="511.99997"
     inkscape:cy="278.03664"
     inkscape:document-units="mm"
     inkscape:current-layer="layer1"
     inkscape:document-rotation="0"
     showgrid="false"
     units="px"
     width="1024px"
     inkscape:window-width="1920"
     inkscape:window-height="1027"
     inkscape:window-x="0"
     inkscape:window-y="25"
     inkscape:window-maximized="1" />
  <metadata
     id="metadata5">
    <rdf:RDF>
      <cc:Work
         rdf:about="">
        <dc:format>image/svg+xml</dc:format>
        <dc:type
           rdf:resource="http://purl.org/dc/dcmitype/StillImage" />
        <dc:title />
      </cc:Work>
    </rdf:RDF>
  </metadata>
  <g
     inkscape:groupmode="layer"
     id="layer6"
     inkscape:label="Image"
     style="display:inline">
    <g
       id="g7087"
       clip-path="url(#clipPath7089)"
       style="filter:url(#filter7105)">
      <g
         inkscape:label="Clip"
         id="g7085">
        <image
           sodipodi:absref="/Users/john/seath/imagery/IMG_20120825_000844.jpg"
           xlink:href="../../imagery/IMG_20120825_000844.jpg"
           width="270.93332"
           height="203.2"
           preserveAspectRatio="none"
           id="image5151"
           x="0"
           y="-67.73333" />
        <path
           id="rect5155"
           style="fill:#2d1f19;fill-opacity:0.0846774;stroke-width:0.941144;stroke-linecap:round"
           d="M 0,0 H 270.93332 V 135.46666 H 0 Z" />
      </g>
    </g>
  </g>
  <g
     inkscape:groupmode="layer"
     id="layer3"
     inkscape:label="Bordering"
     style="display:inline">
    <rect
       style="fill:url(#linearGradient7815);fill-opacity:1;stroke:none;stroke-width:0.264583;stroke-linecap:round"
       id="rect7807"
       width="270.93332"
       height="135.46664"
       x="0"
       y="0" />
  </g>
  <g
     inkscape:label="Logo"
     inkscape:groupmode="layer"
     id="layer1"
     style="display:inline">
    <g
       id="g1223"
       transform="translate(-1.1436825,-0.16917318)"
       style="display:inline">
      <g
         id="g1074"
         transform="matrix(1.315221,0,0,1.315221,-86.690967,-18.782853)">
        <path
           d="m 155.45461,46.167151 q 0.15112,1.090169 0.59366,1.629856 0.80954,0.982232 2.774,0.982232 1.17652,0 1.91049,-0.25905 1.39239,-0.496512 1.39239,-1.845731 0,-0.787944 -0.69079,-1.219694 -0.6908,-0.420957 -2.16955,-0.74477 l -1.68383,-0.377781 q -2.48255,-0.561275 -3.4324,-1.219694 -1.60827,-1.100962 -1.60827,-3.443206 0,-2.137163 1.55429,-3.551145 1.5543,-1.413981 4.56577,-1.413981 2.51494,0 4.28511,1.338425 1.78097,1.327631 1.86732,3.864163 h -3.19495 q -0.0863,-1.435569 -1.25208,-2.04002 -0.77715,-0.399368 -1.93208,-0.399368 -1.28446,0 -2.05081,0.5181 -0.76636,0.5181 -0.76636,1.446363 0,0.852706 0.75557,1.273663 0.48572,0.280637 2.0724,0.658419 l 2.74161,0.658419 q 1.80255,0.43175 2.72003,1.154931 1.42477,1.12255 1.42477,3.248919 0,2.180338 -1.67303,3.626701 -1.66223,1.435569 -4.70608,1.435569 -3.10859,0 -4.88957,-1.413981 -1.78097,-1.424776 -1.78097,-3.907339 z m 3.22734,-11.484552 z"
           style="font-style:normal;font-variant:normal;font-weight:bold;font-stretch:normal;font-size:24.405px;line-height:1.25;font-family:Helvetica;-inkscape-font-specification:'Helvetica Bold';fill:#4e6366;fill-opacity:1;stroke:none;stroke-width:0.552641"
           id="path1557" />
        <path
           d="m 172.84335,48.908764 q 1.34922,0 2.0724,-0.960644 0.72319,-0.960644 0.72319,-2.730819 0,-1.770175 -0.72319,-2.720025 -0.72318,-0.960644 -2.0724,-0.960644 -1.34922,0 -2.08319,0.960644 -0.72318,0.94985 -0.72318,2.720025 0,1.770175 0.72318,2.730819 0.73397,0.960644 2.08319,0.960644 z m 6.02292,-3.691463 q 0,2.590501 -1.48954,4.436232 -1.48954,1.834938 -4.52258,1.834938 -3.03305,0 -4.52259,-1.834938 -1.48954,-1.845731 -1.48954,-4.436232 0,-2.547325 1.48954,-4.414644 1.48954,-1.86732 4.52259,-1.86732 3.03304,0 4.52258,1.86732 1.48954,1.867319 1.48954,4.414644 z m -6.01212,-6.217202 z"
           style="font-style:normal;font-variant:normal;font-weight:bold;font-stretch:normal;font-size:24.405px;line-height:1.25;font-family:Helvetica;-inkscape-font-specification:'Helvetica Bold';fill:#4e6366;fill-opacity:1;stroke:none;stroke-width:0.552641"
           id="path1559" />
        <path
           id="path2773"
           style="font-style:normal;font-variant:normal;font-weight:bold;font-stretch:normal;font-size:24.405px;line-height:1.25;font-family:Helvetica;-inkscape-font-specification:'Helvetica Bold';fill:#d4cec0;fill-opacity:0.996078;stroke:none;stroke-width:2.74713"
           d="m 574.21484,320.45312 c -0.0751,8.60427 0,15.46173 0,23.78711 v 10.89258 36.00196 c 0,3.64851 0.88066,6.34882 2.59766,8.10156 2.64696,2.75428 7.58503,4.00624 14.81055,3.75586 l 7.24218,-0.26758 v -11.42969 c -0.50077,0.0358 -1.01807,0.0736 -1.55468,0.10938 h -1.44922 c -3.11199,0 -4.97399,-0.28705 -5.58203,-0.85938 -0.60844,-0.60808 -0.91016,-2.10927 -0.91016,-4.50586 l 0.0449,-30.90625 v -1.55664 h 9.45117 v -10.89258 h -9.45117 v -14.7539 -7.32422 z"
           transform="matrix(0.20117025,0,0,0.20117025,66.783187,14.409766)" />
        <path
           id="path2771"
           style="font-style:normal;font-variant:normal;font-weight:bold;font-stretch:normal;font-size:24.405px;line-height:1.25;font-family:Helvetica;-inkscape-font-specification:'Helvetica Bold';fill:#69919b;fill-opacity:1;stroke:none;stroke-width:2.74713"
           d="m 574.12891,200.91406 v 14.11133 h 15.24023 v -14.11133 z m 0,21.08594 v 6.40039 10.7832 4.9375 c -5e-5,1.14464 -0.37555,2.18324 -1.12696,3.11329 -1.8712,2.18478 -5.84049,3.72745 -8.53125,3.70507 v 7.22852 2.64062 7.96289 c 2.69071,-0.0224 6.66005,0.78589 8.53125,2.97071 0.75116,0.93002 1.12696,1.96669 1.12696,3.11133 v 4.93554 10.78516 V 313 h 15.24023 v -22.42578 l 0.16016,-10.78516 v -3.7539 c 0,-6.25973 -1.05562,-10.57083 -3.16602,-12.93164 -0.98603,-1.55853 -2.62622,-2.74962 -4.84961,-3.61524 2.22359,-0.86561 3.86353,-2.05857 4.84961,-3.61719 2.11035,-2.36081 3.16602,-6.66996 3.16602,-12.92968 v -3.75782 l -0.16016,-10.7832 V 222 Z"
           transform="matrix(0.20117025,0,0,0.20117025,66.783187,14.409766)" />
        <path
           id="path1561"
           style="font-style:normal;font-variant:normal;font-weight:bold;font-stretch:normal;font-size:24.405px;line-height:1.25;font-family:Helvetica;-inkscape-font-specification:'Helvetica Bold';fill:#4e6366;fill-opacity:1;stroke:none;stroke-width:2.74713"
           d="m 593.2793,102.38281 c -8.4775,0 -13.82325,1.75431 -16.04102,5.25977 -2.1104,2.36079 -3.16601,6.66994 -3.16601,12.92969 l 0.0801,3.75781 v 10.7832 58.63867 h 15.19141 V 135.2207 h 10.0625 v -10.89258 h -9.93555 v -4.93554 c 0,-1.14465 0.3753,-2.18326 1.12696,-3.11328 0.78694,-0.96575 2.18241,-1.41138 4.18554,-1.33985 2.03887,0.0358 3.48528,0.10562 4.34375,0.21289 v -12.44726 c -1.35924,-0.10732 -2.4299,-0.1771 -3.21679,-0.21289 -0.78695,-0.0715 -1.66506,-0.10938 -2.63086,-0.10938 z"
           transform="matrix(0.20117025,0,0,0.20117025,66.783187,14.409766)" />
        <path
           d="m 190.61576,41.612197 v -2.191141 0 -3.2813 h 3.04384 v 3.2813 h 1.91049 v 2.191131 h -1.91049 v 6.217202 c 0,0.482121 0.0612,0.784346 0.1835,0.906675 0.12233,0.115133 0.49651,0.1727 1.12254,0.1727 h 0.29143 c 0.10794,-0.0072 0.21228,-0.01439 0.31302,-0.02158 v 2.29907 l -1.45715,0.05397 c -1.45357,0.05037 -2.44659,-0.201481 -2.97908,-0.755562 -0.3454,-0.352596 -0.5181,-0.895881 -0.5181,-1.629856 z"
           style="font-style:normal;font-variant:normal;font-weight:bold;font-stretch:normal;font-size:24.405px;line-height:1.25;font-family:Helvetica;-inkscape-font-specification:'Helvetica Bold';fill:#4e6366;fill-opacity:1;stroke:none;stroke-width:0.552641"
           id="path1563"
           sodipodi:nodetypes="cccccccccscscccccscc" />
        <path
           d="m 203.11492,39.313119 h 3.1194 l 1.79176,8.473095 1.83494,-8.473095 h 3.20574 l -3.41082,11.76519 h -3.16257 l -1.84573,-8.57024 -1.86732,8.57024 h -3.19495 l -3.30289,-11.76519 h 3.30289 l 1.83493,8.440713 z"
           style="font-style:normal;font-variant:normal;font-weight:bold;font-stretch:normal;font-size:24.405px;line-height:1.25;font-family:Helvetica;-inkscape-font-specification:'Helvetica Bold';fill:#4e6366;fill-opacity:1;stroke:none;stroke-width:0.552641"
           id="path1565" />
        <path
           d="m 221.23764,45.357619 q -0.29144,0.183495 -0.59366,0.302225 -0.29143,0.107939 -0.80953,0.205082 l -0.6908,0.129525 q -0.97144,0.1727 -1.39239,0.420957 -0.71239,0.420955 -0.71239,1.306044 0,0.787944 0.43175,1.144137 0.44254,0.3454 1.06858,0.3454 0.99302,0 1.82414,-0.582863 0.84192,-0.582862 0.8743,-2.126368 z m -1.86732,-1.435569 q 0.85271,-0.107937 1.21969,-0.269843 0.65842,-0.280637 0.65842,-0.874294 0,-0.723181 -0.5073,-0.993026 -0.49652,-0.280637 -1.46796,-0.280637 -1.09016,0 -1.54351,0.539688 -0.3238,0.399368 -0.43175,1.079375 h -2.96828 q 0.0971,-1.543506 0.86351,-2.536532 1.21969,-1.5543 4.18797,-1.5543 1.93208,0 3.43242,0.766357 1.50033,0.766355 1.50033,2.892725 v 5.396876 q 0,0.561275 0.0215,1.360012 0.0324,0.604451 0.1835,0.820326 0.15112,0.215875 0.45334,0.356193 v 0.453339 h -3.34607 q -0.14031,-0.356194 -0.19429,-0.669214 -0.054,-0.313018 -0.0863,-0.712387 -0.63683,0.6908 -1.46794,1.176519 -0.99303,0.572069 -2.24511,0.572069 -1.59747,0 -2.64447,-0.906676 -1.03619,-0.917468 -1.03619,-2.5905 0,-2.169544 1.67303,-3.140981 0.91747,-0.528894 2.69843,-0.755564 z m 0.1619,-4.921951 z"
           style="font-style:normal;font-variant:normal;font-weight:bold;font-stretch:normal;font-size:24.405px;line-height:1.25;font-family:Helvetica;-inkscape-font-specification:'Helvetica Bold';fill:#4e6366;fill-opacity:1;stroke:none;stroke-width:0.552641"
           id="path1567" />
        <path
           d="m 233.44537,39.032481 q 0.0863,0 0.14031,0.0108 0.0648,0 0.26984,0.0108 v 3.151775 q -0.29142,-0.03238 -0.51809,-0.04318 -0.22667,-0.0108 -0.36699,-0.0108 -1.85653,0 -2.49336,1.2089 -0.35619,0.680006 -0.35619,2.093988 v 5.623545 h -3.0978 v -11.76519 h 2.9359 v 2.050813 q 0.71238,-1.176519 1.24127,-1.608269 0.8635,-0.723182 2.24511,-0.723182 z"
           style="font-style:normal;font-variant:normal;font-weight:bold;font-stretch:normal;font-size:24.405px;line-height:1.25;font-family:Helvetica;-inkscape-font-specification:'Helvetica Bold';fill:#4e6366;fill-opacity:1;stroke:none;stroke-width:0.552641"
           id="path1569" />
        <path
           d="m 240.28861,41.536632 q -1.06858,0 -1.66224,0.669212 -0.58286,0.669212 -0.73398,1.813351 h 4.78163 q -0.0755,-1.219694 -0.74477,-1.845732 -0.65841,-0.636831 -1.64064,-0.636831 z m 0,-2.536533 q 1.46795,0 2.64447,0.550482 1.17652,0.550482 1.94287,1.737794 0.69081,1.046994 0.89588,2.428595 0.11873,0.809531 0.0971,2.33145 h -8.05214 q 0.0648,1.770175 1.11176,2.482563 0.63683,0.442543 1.53271,0.442543 0.94985,0 1.54351,-0.539687 0.32381,-0.291432 0.57206,-0.809532 h 3.14099 q -0.11873,1.046994 -1.09017,2.12637 -1.51113,1.716207 -4.23115,1.716207 -2.2451,0 -3.96131,-1.446364 -1.71621,-1.446362 -1.71621,-4.706076 0,-3.054631 1.54351,-4.684487 1.5543,-1.629858 4.02607,-1.629858 z m 0.21588,0 z"
           style="font-style:normal;font-variant:normal;font-weight:bold;font-stretch:normal;font-size:24.405px;line-height:1.25;font-family:Helvetica;-inkscape-font-specification:'Helvetica Bold';fill:#4e6366;fill-opacity:1;stroke:none;stroke-width:0.552641"
           id="path1571" />
        <path
           d="m 151.33034,59.444077 h -8.41913 v 3.378444 h 7.72833 v 2.763201 h -7.72833 v 4.090832 h 8.8077 v 2.860344 H 139.6623 v -15.90999 h 11.66804 z"
           style="font-style:normal;font-variant:normal;font-weight:bold;font-stretch:normal;font-size:24.405px;line-height:1.25;font-family:Helvetica;-inkscape-font-specification:'Helvetica Bold';fill:#69919b;fill-opacity:1;stroke:none;stroke-width:0.552641"
           id="path1574" />
        <path
           d="m 160.60217,60.491071 q 1.82414,0 2.97908,0.960644 1.16572,0.94985 1.16572,3.162569 v 7.922614 h -3.15178 v -7.156257 q 0,-0.928263 -0.24825,-1.424776 -0.45334,-0.906675 -1.727,-0.906675 -1.56509,0 -2.14796,1.327632 -0.30222,0.701593 -0.30222,1.791762 v 6.368314 h -3.06543 V 60.793296 h 2.96829 v 1.716206 q 0.59365,-0.906675 1.12254,-1.306044 0.94986,-0.712387 2.40701,-0.712387 z m -1.13334,-0.03238 z"
           style="font-style:normal;font-variant:normal;font-weight:bold;font-stretch:normal;font-size:24.405px;line-height:1.25;font-family:Helvetica;-inkscape-font-specification:'Helvetica Bold';fill:#69919b;fill-opacity:1;stroke:none;stroke-width:0.552641"
           id="path1576" />
        <path
           d="m 172.648,70.01116 q 1.07937,0 1.82414,-0.809531 0.74477,-0.820325 0.74477,-2.601294 0,-1.673032 -0.71239,-2.547326 -0.70159,-0.874294 -1.88891,-0.874294 -1.61905,0 -2.2343,1.521919 -0.32381,0.809532 -0.32381,1.996844 0,1.025407 0.3454,1.824144 0.62604,1.489538 2.2451,1.489538 z m -0.76636,-9.520089 q 0.88509,0 1.54351,0.269844 1.12255,0.464131 1.81335,1.705412 v -1.694619 h 2.98987 v 11.16074 q 0,2.277482 -0.76636,3.432413 -1.31684,1.986051 -5.05147,1.986051 -2.2559,0 -3.68068,-0.885089 -1.42477,-0.885087 -1.57588,-2.644468 h 3.34606 q 0.12953,0.539687 0.42096,0.77715 0.49651,0.420956 1.67303,0.420956 1.66224,0 2.22351,-1.111756 0.36699,-0.712388 0.36699,-2.396213 v -0.755563 q -0.44254,0.755563 -0.94985,1.133344 -0.91747,0.701593 -2.38542,0.701593 -2.26668,0 -3.6267,-1.586681 -1.34922,-1.597475 -1.34922,-4.3175 0,-2.622882 1.30604,-4.403851 1.30605,-1.791763 3.70226,-1.791763 z m 0.98223,-0.03238 z"
           style="font-style:normal;font-variant:normal;font-weight:bold;font-stretch:normal;font-size:24.405px;line-height:1.25;font-family:Helvetica;-inkscape-font-specification:'Helvetica Bold';fill:#69919b;fill-opacity:1;stroke:none;stroke-width:0.552641"
           id="path1578" />
        <path
           d="m 195.88502,60.491071 q 1.82414,0 2.97907,0.960644 1.16573,0.94985 1.16573,3.162569 v 7.922614 h -3.15178 v -7.156257 q 0,-0.928263 -0.24826,-1.424776 -0.45333,-0.906675 -1.727,-0.906675 -1.56509,0 -2.14795,1.327632 -0.30222,0.701593 -0.30222,1.791762 v 6.368314 h -3.06543 V 60.793296 h 2.96828 v 1.716206 q 0.59366,-0.906675 1.12256,-1.306044 0.94984,-0.712387 2.407,-0.712387 z m -1.13335,-0.03238 z"
           style="font-style:normal;font-variant:normal;font-weight:bold;font-stretch:normal;font-size:24.405px;line-height:1.25;font-family:Helvetica;-inkscape-font-specification:'Helvetica Bold';fill:#69919b;fill-opacity:1;stroke:none;stroke-width:0.552641"
           id="path1582" />
        <path
           d="m 207.52068,62.995221 q -1.06858,0 -1.66223,0.669213 -0.58286,0.669213 -0.73398,1.81335 h 4.78164 q -0.0756,-1.219694 -0.74477,-1.845731 -0.65843,-0.636832 -1.64066,-0.636832 z m 0,-2.536531 q 1.46795,0 2.64447,0.550481 1.17652,0.550481 1.94288,1.737794 0.6908,1.046994 0.89588,2.428594 0.11873,0.809532 0.0971,2.331451 h -8.05213 q 0.0648,1.770175 1.11175,2.482563 0.63683,0.442544 1.53271,0.442544 0.94985,0 1.54351,-0.539688 0.32381,-0.291431 0.57207,-0.809531 h 3.14098 q -0.11873,1.046993 -1.09017,2.126369 -1.51113,1.716206 -4.23115,1.716206 -2.2451,0 -3.9613,-1.446362 -1.71621,-1.446363 -1.71621,-4.706076 0,-3.054632 1.5435,-4.684489 1.55431,-1.629856 4.02607,-1.629856 z m 0.21588,0 z"
           style="font-style:normal;font-variant:normal;font-weight:bold;font-stretch:normal;font-size:24.405px;line-height:1.25;font-family:Helvetica;-inkscape-font-specification:'Helvetica Bold';fill:#69919b;fill-opacity:1;stroke:none;stroke-width:0.552641"
           id="path1584" />
        <path
           d="m 219.82556,62.995221 q -1.06858,0 -1.66224,0.669213 -0.58286,0.669213 -0.73397,1.81335 h 4.78163 q -0.0755,-1.219694 -0.74477,-1.845731 -0.65841,-0.636832 -1.64065,-0.636832 z m 0,-2.536531 q 1.46795,0 2.64447,0.550481 1.17652,0.550481 1.94288,1.737794 0.69079,1.046994 0.89588,2.428594 0.11873,0.809532 0.0971,2.331451 h -8.05214 q 0.0648,1.770175 1.11175,2.482563 0.63684,0.442544 1.53272,0.442544 0.94985,0 1.54351,-0.539688 0.32381,-0.291431 0.57206,-0.809531 h 3.14099 q -0.11874,1.046993 -1.09017,2.126369 -1.51112,1.716206 -4.23115,1.716206 -2.2451,0 -3.96131,-1.446362 -1.7162,-1.446363 -1.7162,-4.706076 0,-3.054632 1.5435,-4.684489 1.5543,-1.629856 4.02607,-1.629856 z m 0.21587,0 z"
           style="font-style:normal;font-variant:normal;font-weight:bold;font-stretch:normal;font-size:24.405px;line-height:1.25;font-family:Helvetica;-inkscape-font-specification:'Helvetica Bold';fill:#69919b;fill-opacity:1;stroke:none;stroke-width:0.552641"
           id="path1586" />
        <path
           d="m 233.87902,60.491071 q 0.0863,0 0.14032,0.0108 0.0648,0 0.26984,0.0108 v 3.151776 q -0.29143,-0.03238 -0.5181,-0.04318 -0.22667,-0.0108 -0.36698,-0.0108 -1.85653,0 -2.49336,1.2089 -0.3562,0.680007 -0.3562,2.093988 V 72.5369 h -3.0978 V 60.77171 h 2.9359 v 2.050813 q 0.71238,-1.176519 1.24128,-1.608269 0.8635,-0.723181 2.2451,-0.72318 z"
           style="font-style:normal;font-variant:normal;font-weight:bold;font-stretch:normal;font-size:24.405px;line-height:1.25;font-family:Helvetica;-inkscape-font-specification:'Helvetica Bold';fill:#69919b;fill-opacity:1;stroke:none;stroke-width:0.552641"
           id="path1588" />
        <path
           d="m 239.24352,59.368521 h -3.1194 v -2.838757 h 3.1194 z m -3.1194,1.403187 h 3.1194 v 11.76519 h -3.1194 z"
           style="font-style:normal;font-variant:normal;font-weight:bold;font-stretch:normal;font-size:24.405px;line-height:1.25;font-family:Helvetica;-inkscape-font-specification:'Helvetica Bold';fill:#69919b;fill-opacity:1;stroke:none;stroke-width:0.552641"
           id="path1590" />
        <path
           d="m 248.73123,60.491071 q 1.82414,0 2.97907,0.960644 1.16572,0.94985 1.16572,3.162569 v 7.922614 h -3.15177 v -7.156257 q 0,-0.928263 -0.24825,-1.424776 -0.45335,-0.906675 -1.72701,-0.906675 -1.56509,0 -2.14795,1.327632 -0.30223,0.701593 -0.30223,1.791762 v 6.368314 h -3.06543 V 60.793296 h 2.96829 v 1.716206 q 0.59366,-0.906675 1.12255,-1.306044 0.94985,-0.712387 2.40701,-0.712387 z m -1.13335,-0.03238 z"
           style="font-style:normal;font-variant:normal;font-weight:bold;font-stretch:normal;font-size:24.405px;line-height:1.25;font-family:Helvetica;-inkscape-font-specification:'Helvetica Bold';fill:#69919b;fill-opacity:1;stroke:none;stroke-width:0.552641"
           id="path1592" />
        <path
           d="m 260.77706,70.01116 q 1.07937,0 1.82414,-0.809531 0.74476,-0.820325 0.74476,-2.601294 0,-1.673032 -0.71239,-2.547326 -0.70159,-0.874294 -1.8889,-0.874294 -1.61906,0 -2.23431,1.521919 -0.32381,0.809532 -0.32381,1.996844 0,1.025407 0.3454,1.824144 0.62604,1.489538 2.24511,1.489538 z m -0.76637,-9.520089 q 0.8851,0 1.54351,0.269844 1.12255,0.464131 1.81336,1.705412 v -1.694619 h 2.98986 v 11.16074 q 0,2.277482 -0.76635,3.432413 -1.31685,1.986051 -5.05148,1.986051 -2.2559,0 -3.68067,-0.885089 -1.42477,-0.885087 -1.57588,-2.644468 h 3.34605 q 0.12953,0.539687 0.42097,0.77715 0.4965,0.420956 1.67302,0.420956 1.66225,0 2.22351,-1.111756 0.36699,-0.712388 0.36699,-2.396213 v -0.755563 q -0.44254,0.755563 -0.94985,1.133344 -0.91746,0.701593 -2.38542,0.701593 -2.26668,0 -3.6267,-1.586681 -1.34921,-1.597475 -1.34921,-4.3175 0,-2.622882 1.30604,-4.403851 1.30604,-1.791763 3.70225,-1.791763 z m 0.98224,-0.03238 z"
           style="font-style:normal;font-variant:normal;font-weight:bold;font-stretch:normal;font-size:24.405px;line-height:1.25;font-family:Helvetica;-inkscape-font-specification:'Helvetica Bold';fill:#69919b;fill-opacity:1;stroke:none;stroke-width:0.552641"
           id="path1594" />
        <path
           d="m 174.99078,89.597252 q -0.29142,0.183494 -0.59366,0.302224 -0.29142,0.107938 -0.80952,0.205082 l -0.6908,0.129525 q -0.97145,0.1727 -1.3924,0.420957 -0.71239,0.420955 -0.71239,1.306044 0,0.787944 0.43175,1.144137 0.44255,0.3454 1.06858,0.3454 0.99303,0 1.82414,-0.582862 0.84192,-0.582863 0.8743,-2.126369 z m -1.86731,-1.435569 q 0.8527,-0.107938 1.21969,-0.269844 0.65842,-0.280637 0.65842,-0.874294 0,-0.723181 -0.50731,-0.993025 -0.49652,-0.280638 -1.46795,-0.280638 -1.09017,0 -1.5435,0.539687 -0.32382,0.39937 -0.43175,1.079376 h -2.96829 q 0.0971,-1.543506 0.8635,-2.536532 1.21969,-1.5543 4.18798,-1.5543 1.93208,0 3.43241,0.766357 1.50033,0.766356 1.50033,2.892725 v 5.396876 q 0,0.561275 0.0216,1.360012 0.0324,0.604451 0.18349,0.820326 0.15111,0.215875 0.45333,0.356193 v 0.453339 h -3.34605 q -0.14033,-0.356194 -0.19429,-0.669213 -0.054,-0.313019 -0.0863,-0.712388 -0.63683,0.6908 -1.46795,1.176519 -0.99303,0.572069 -2.2451,0.572069 -1.59747,0 -2.64447,-0.906676 -1.0362,-0.917469 -1.0362,-2.5905 0,-2.169544 1.67303,-3.140981 0.91747,-0.528894 2.69844,-0.755563 z m 0.1619,-4.921951 z"
           style="font-style:normal;font-variant:normal;font-weight:bold;font-stretch:normal;font-size:24.405px;line-height:1.25;font-family:Helvetica;-inkscape-font-specification:'Helvetica Bold';fill:#d4cec0;fill-opacity:0.996078;stroke:none;stroke-width:0.552641"
           id="path1597" />
        <path
           d="M 196.94671,95.425881 V 79.51589 h 3.29209 v 6.06609 h 6.2172 v -6.06609 h 3.30289 V 95.425881 H 206.456 v -7.102289 h -6.2172 v 7.102289 z"
           style="font-style:normal;font-variant:normal;font-weight:bold;font-stretch:normal;font-size:24.405px;line-height:1.25;font-family:Helvetica;-inkscape-font-specification:'Helvetica Bold';fill:#eece61;fill-opacity:1;stroke:none;stroke-width:0.552641"
           id="path1602" />
        <path
           d="m 217.97293,93.256334 q 1.34922,0 2.07241,-0.960645 0.72318,-0.960636 0.72318,-2.730814 0,-1.770178 -0.72318,-2.720026 -0.72319,-0.960645 -2.07241,-0.960645 -1.34921,0 -2.08318,0.960645 -0.72319,0.949848 -0.72319,2.720026 0,1.770178 0.72319,2.730814 0.73397,0.960645 2.08318,0.960645 z m 6.02292,-3.691459 q 0,2.590499 -1.48954,4.436229 -1.48954,1.834942 -4.52258,1.834942 -3.03304,0 -4.52258,-1.834942 -1.48954,-1.84573 -1.48954,-4.436229 0,-2.54733 1.48954,-4.414644 1.48954,-1.867321 4.52258,-1.867321 3.03304,0 4.52258,1.867321 1.48954,1.867314 1.48954,4.414644 z m -6.01212,-6.217203 z"
           style="font-style:normal;font-variant:normal;font-weight:bold;font-stretch:normal;font-size:24.405px;line-height:1.25;font-family:Helvetica;-inkscape-font-specification:'Helvetica Bold';fill:#eece61;fill-opacity:1;stroke:none;stroke-width:0.552641"
           id="path1604" />
        <path
           d="m 239.35535,83.401642 q 0.77715,0 1.53272,0.302224 0.75556,0.302225 1.3708,1.057784 0.49652,0.615243 0.66922,1.511125 0.10793,0.593658 0.10793,1.737797 l -0.0215,7.415309 h -3.15178 V 87.93502 q 0,-0.669218 -0.21587,-1.100968 -0.41017,-0.820322 -1.51113,-0.820322 -1.27366,0 -1.75938,1.05779 -0.24826,0.561268 -0.24826,1.349217 v 7.005144 h -3.09781 v -7.005144 q 0,-1.046993 -0.21587,-1.521922 -0.38857,-0.852703 -1.52191,-0.852703 -1.31685,0 -1.77018,0.852703 -0.24826,0.485716 -0.24826,1.446361 v 7.080705 h -3.11944 V 83.682279 h 2.98986 v 1.716208 q 0.57208,-0.917471 1.07938,-1.306046 0.89588,-0.690799 2.32066,-0.690799 1.34921,0 2.18033,0.593655 0.66922,0.550482 1.01462,1.413978 0.60445,-1.036196 1.50033,-1.521915 0.94985,-0.485718 2.11557,-0.485718 z"
           style="font-style:normal;font-variant:normal;font-weight:bold;font-stretch:normal;font-size:24.405px;line-height:1.25;font-family:Helvetica;-inkscape-font-specification:'Helvetica Bold';fill:#eece61;fill-opacity:1;stroke:none;stroke-width:0.552641"
           id="path1606" />
        <path
           d="m 250.49451,85.884204 q -1.06858,0 -1.66223,0.669209 -0.58287,0.669219 -0.73399,1.813357 h 4.78163 q -0.0755,-1.219698 -0.74476,-1.845738 -0.65842,-0.636828 -1.64065,-0.636828 z m 0,-2.536532 q 1.46795,0 2.64447,0.550482 1.17652,0.550481 1.94287,1.737793 0.69081,1.046993 0.89588,2.428591 0.11873,0.809533 0.0971,2.331455 h -8.05214 q 0.0648,1.770178 1.11176,2.482567 0.63683,0.442537 1.53271,0.442537 0.94985,0 1.54351,-0.539682 0.32381,-0.291436 0.57207,-0.809534 h 3.14098 q -0.11873,1.046993 -1.09017,2.126368 -1.51113,1.716203 -4.23115,1.716203 -2.2451,0 -3.96131,-1.446361 -1.71621,-1.446362 -1.71621,-4.706071 0,-3.054631 1.54351,-4.684495 1.5543,-1.629853 4.02607,-1.629853 z m 0.21588,0 z"
           style="font-style:normal;font-variant:normal;font-weight:bold;font-stretch:normal;font-size:24.405px;line-height:1.25;font-family:Helvetica;-inkscape-font-specification:'Helvetica Bold';fill:#eece61;fill-opacity:1;stroke:none;stroke-width:0.552641"
           id="path1608" />
        <path
           style="color:#000000;font-style:normal;font-variant:normal;font-weight:normal;font-stretch:normal;font-size:medium;line-height:normal;font-family:sans-serif;font-variant-ligatures:normal;font-variant-position:normal;font-variant-caps:normal;font-variant-numeric:normal;font-variant-alternates:normal;font-variant-east-asian:normal;font-feature-settings:normal;font-variation-settings:normal;text-indent:0;text-align:start;text-decoration:none;text-decoration-line:none;text-decoration-style:solid;text-decoration-color:#000000;letter-spacing:normal;word-spacing:normal;text-transform:none;writing-mode:lr-tb;direction:ltr;text-orientation:mixed;dominant-baseline:auto;baseline-shift:baseline;text-anchor:start;white-space:normal;shape-padding:0;shape-margin:0;inline-size:0;clip-rule:nonzero;display:inline;overflow:visible;visibility:visible;opacity:1;isolation:auto;mix-blend-mode:normal;color-interpolation:sRGB;color-interpolation-filters:linearRGB;solid-color:#000000;solid-opacity:1;vector-effect:none;fill:#eece61;fill-opacity:1;fill-rule:nonzero;stroke:none;stroke-width:4.11136;stroke-linecap:round;stroke-linejoin:miter;stroke-miterlimit:4;stroke-dasharray:none;stroke-dashoffset:0;stroke-opacity:1;color-rendering:auto;image-rendering:auto;shape-rendering:auto;text-rendering:auto;enable-background:accumulate;stop-color:#000000;stop-opacity:1"
           d="m 262.82045,82.320949 v 21.573481 c 0,1.0908 -0.87478,1.9079 -2.04484,1.9079 H 153.26693 l 2.94504,3.96926 h 104.56364 c 3.45541,0 6.30297,-2.65583 6.30297,-5.87716 V 82.320949 Z"
           id="path2714"
           sodipodi:nodetypes="cssccsscc" />
        <path
           style="color:#000000;font-style:normal;font-variant:normal;font-weight:normal;font-stretch:normal;font-size:medium;line-height:normal;font-family:sans-serif;font-variant-ligatures:normal;font-variant-position:normal;font-variant-caps:normal;font-variant-numeric:normal;font-variant-alternates:normal;font-variant-east-asian:normal;font-feature-settings:normal;font-variation-settings:normal;text-indent:0;text-align:start;text-decoration:none;text-decoration-line:none;text-decoration-style:solid;text-decoration-color:#000000;letter-spacing:normal;word-spacing:normal;text-transform:none;writing-mode:lr-tb;direction:ltr;text-orientation:mixed;dominant-baseline:auto;baseline-shift:baseline;text-anchor:start;white-space:normal;shape-padding:0;shape-margin:0;inline-size:0;clip-rule:nonzero;display:inline;overflow:visible;visibility:visible;opacity:1;isolation:auto;mix-blend-mode:normal;color-interpolation:sRGB;color-interpolation-filters:linearRGB;solid-color:#000000;solid-opacity:1;vector-effect:none;fill:#4e6366;fill-opacity:1;fill-rule:nonzero;stroke:none;stroke-width:4.11136;stroke-linecap:round;stroke-linejoin:miter;stroke-miterlimit:4;stroke-dasharray:none;stroke-dashoffset:0;stroke-opacity:1;color-rendering:auto;image-rendering:auto;shape-rendering:auto;text-rendering:auto;enable-background:accumulate;stop-color:#000000;stop-opacity:1"
           d="m 260.77561,20.499007 -151.8052,0.19637 1.96318,3.773413 h 149.84202 c 1.17006,0 2.04484,0.815544 2.04484,1.906344 V 54.13313 h 4.25813 V 26.375134 c 0,-3.221328 -2.84758,-5.876127 -6.30297,-5.876127 z"
           id="path914"
           sodipodi:nodetypes="cccssccsc" />
      </g>
      <g
         id="g1150"
         transform="matrix(0.61652795,0.61652795,-0.61652795,0.61652795,62.56003,-12.325562)">
        <g
           id="g955"
           transform="translate(-0.0091994,-0.78530865)"
           style="display:inline" />
      </g>
    </g>
  </g>
</svg>
