<?xml version="1.0" encoding="UTF-8" standalone="no"?>
<svg
   xmlns:dc="http://purl.org/dc/elements/1.1/"
   xmlns:cc="http://creativecommons.org/ns#"
   xmlns:rdf="http://www.w3.org/1999/02/22-rdf-syntax-ns#"
   xmlns:svg="http://www.w3.org/2000/svg"
   xmlns="http://www.w3.org/2000/svg"
   xmlns:xlink="http://www.w3.org/1999/xlink"
   xmlns:sodipodi="http://sodipodi.sourceforge.net/DTD/sodipodi-0.dtd"
   xmlns:inkscape="http://www.inkscape.org/namespaces/inkscape"
   width="512"
   height="512"
   viewBox="0 0 135.46666 135.46667"
   version="1.1"
   id="svg36"
   inkscape:version="1.0.1 (c497b03c, 2020-09-10)"
   sodipodi:docname="seat-logo.svg"
   inkscape:export-filename="/Users/john/seat/branding/logos/seat-logo.png"
   inkscape:export-xdpi="96.099998"
   inkscape:export-ydpi="96.099998">
  <defs
     id="defs30">
    <linearGradient
       inkscape:collect="always"
       id="primary_gradient">
      <stop
         style="stop-color:#eece61;stop-opacity:1;"
         offset="0"
         id="stop3946" />
      <stop
         style="stop-color:#edeae4;stop-opacity:1"
         offset="0.08411608"
         id="stop3952" />
      <stop
         style="stop-color:#eece61;stop-opacity:1"
         offset="0.29783598"
         id="stop3954" />
      <stop
         style="stop-color:#eece61;stop-opacity:1"
         offset="0.69586176"
         id="stop3956" />
      <stop
         style="stop-color:#2a1b06;stop-opacity:1"
         offset="1"
         id="stop3948" />
    </linearGradient>
    <linearGradient
       inkscape:collect="always"
       xlink:href="#primary_gradient"
       id="linearGradient3901"
       x1="67.84346"
       y1="23.085867"
       x2="98.612625"
       y2="124.77204"
       gradientUnits="userSpaceOnUse" />
    <linearGradient
       inkscape:collect="always"
       xlink:href="#primary_gradient"
       id="linearGradient3936"
       x1="26.474283"
       y1="19.006525"
       x2="67.827148"
       y2="122.67979"
       gradientUnits="userSpaceOnUse" />
  </defs>
  <sodipodi:namedview
     id="base"
     pagecolor="#ffffff"
     bordercolor="#666666"
     borderopacity="1.0"
     inkscape:pageopacity="0.0"
     inkscape:pageshadow="2"
     inkscape:zoom="1.5996094"
     inkscape:cx="256"
     inkscape:cy="256"
     inkscape:document-units="mm"
     inkscape:current-layer="layer4"
     inkscape:document-rotation="0"
     showgrid="false"
     units="px"
     inkscape:window-width="1920"
     inkscape:window-height="1027"
     inkscape:window-x="0"
     inkscape:window-y="25"
     inkscape:window-maximized="1" />
  <metadata
     id="metadata33">
    <rdf:RDF>
      <cc:Work
         rdf:about="">
        <dc:format>image/svg+xml</dc:format>
        <dc:type
           rdf:resource="http://purl.org/dc/dcmitype/StillImage" />
        <dc:title />
      </cc:Work>
    </rdf:RDF>
  </metadata>
  <g
     inkscape:groupmode="layer"
     id="layer4"
     inkscape:label="Background"
     style="display:none">
    <g
       inkscape:groupmode="layer"
       id="layer6"
       inkscape:label="Box"
       style="display:inline;opacity:0.996"
       sodipodi:insensitive="true">
      <rect
         style="fill:#d4cec0;fill-opacity:1;stroke:none;stroke-width:0.264067;stroke-opacity:1"
         id="rect861"
         width="135.20261"
         height="135.20261"
         x="-1.4210855e-14"
         y="0" />
    </g>
    <g
       inkscape:groupmode="layer"
       id="layer7"
       inkscape:label="Shapes"
       style="display:inline">
      <g
         id="g869"
         transform="rotate(45,-55.535596,75.255286)"
         style="stroke:#2a1b06;stroke-width:0.0529167;stroke-miterlimit:4;stroke-dasharray:none;stroke-opacity:1">
        <path
           style="fill:none;stroke:#2a1b06;stroke-width:0.0529167;stroke-linecap:butt;stroke-linejoin:miter;stroke-miterlimit:4;stroke-dasharray:none;stroke-opacity:1"
           d="m 72.178588,14.138349 v 14.643722 l -3.67951,1.535199 V 25.249758 L 66.829,24.302463 66.8222,18.406297 68.499037,17.383896 v -4.85692 l 3.67951,1.611373"
           id="path863" />
        <path
           style="fill:none;stroke:#2a1b06;stroke-width:0.0529167;stroke-linecap:butt;stroke-linejoin:miter;stroke-miterlimit:4;stroke-dasharray:none;stroke-opacity:1"
           d="m 62.997875,12.526976 v 4.85692 l 1.676838,1.022401 -0.0068,5.896166 -1.670078,0.947295 V 30.31727 L 59.318364,28.782071 V 14.138349 l 3.679511,-1.611373"
           id="path865" />
      </g>
      <g
         id="g875"
         transform="rotate(45,77.635471,20.094024)"
         style="stroke:#2a1b06;stroke-width:0.0529167;stroke-miterlimit:4;stroke-dasharray:none;stroke-opacity:1">
        <path
           style="fill:none;stroke:#2a1b06;stroke-width:0.0529167;stroke-linecap:butt;stroke-linejoin:miter;stroke-miterlimit:4;stroke-dasharray:none;stroke-opacity:1"
           d="m 72.178588,14.138349 v 14.643722 l -3.67951,1.535199 V 25.249758 L 66.829,24.302463 66.8222,18.406297 68.499037,17.383896 v -4.85692 l 3.67951,1.611373"
           id="path871" />
        <path
           style="fill:none;stroke:#2a1b06;stroke-width:0.0529167;stroke-linecap:butt;stroke-linejoin:miter;stroke-miterlimit:4;stroke-dasharray:none;stroke-opacity:1"
           d="m 62.997875,12.526976 v 4.85692 l 1.676838,1.022401 -0.0068,5.896166 -1.670078,0.947295 V 30.31727 L 59.318364,28.782071 V 14.138349 l 3.679511,-1.611373"
           id="path873" />
      </g>
      <g
         id="g881"
         transform="rotate(45,67.822578,91.097199)"
         style="stroke:#2a1b06;stroke-width:0.0529167;stroke-miterlimit:4;stroke-dasharray:none;stroke-opacity:1">
        <path
           style="fill:none;stroke:#2a1b06;stroke-width:0.0529167;stroke-linecap:butt;stroke-linejoin:miter;stroke-miterlimit:4;stroke-dasharray:none;stroke-opacity:1"
           d="m 72.178588,14.138349 v 14.643722 l -3.67951,1.535199 V 25.249758 L 66.829,24.302463 66.8222,18.406297 68.499037,17.383896 v -4.85692 l 3.67951,1.611373"
           id="path877" />
        <path
           style="fill:none;stroke:#2a1b06;stroke-width:0.0529167;stroke-linecap:butt;stroke-linejoin:miter;stroke-miterlimit:4;stroke-dasharray:none;stroke-opacity:1"
           d="m 62.997875,12.526976 v 4.85692 l 1.676838,1.022401 -0.0068,5.896166 -1.670078,0.947295 V 30.31727 L 59.318364,28.782071 V 14.138349 l 3.679511,-1.611373"
           id="path879" />
      </g>
      <g
         id="g893"
         transform="rotate(45,21.26265,-22.79979)"
         style="stroke:#2a1b06;stroke-width:0.0529167;stroke-miterlimit:4;stroke-dasharray:none;stroke-opacity:1">
        <path
           style="fill:none;stroke:#2a1b06;stroke-width:0.0529167;stroke-linecap:butt;stroke-linejoin:miter;stroke-miterlimit:4;stroke-dasharray:none;stroke-opacity:1"
           d="m 72.178588,14.138349 v 14.643722 l -3.67951,1.535199 V 25.249758 L 66.829,24.302463 66.8222,18.406297 68.499037,17.383896 v -4.85692 l 3.67951,1.611373"
           id="path889" />
        <path
           style="fill:none;stroke:#2a1b06;stroke-width:0.0529167;stroke-linecap:butt;stroke-linejoin:miter;stroke-miterlimit:4;stroke-dasharray:none;stroke-opacity:1"
           d="m 62.997875,12.526976 v 4.85692 l 1.676838,1.022401 -0.0068,5.896166 -1.670078,0.947295 V 30.31727 L 59.318364,28.782071 V 14.138349 l 3.679511,-1.611373"
           id="path891" />
      </g>
      <g
         id="g969"
         transform="rotate(45,1.9342893,118.38902)"
         style="stroke:#2a1b06;stroke-width:0.0529167;stroke-miterlimit:4;stroke-dasharray:none;stroke-opacity:1">
        <path
           style="fill:none;stroke:#2a1b06;stroke-width:0.0529167;stroke-linecap:butt;stroke-linejoin:miter;stroke-miterlimit:4;stroke-dasharray:none;stroke-opacity:1"
           d="m 72.178588,14.138349 v 14.643722 l -3.67951,1.535199 V 25.249758 L 66.829,24.302463 66.8222,18.406297 68.499037,17.383896 v -4.85692 l 3.67951,1.611373"
           id="path965" />
        <path
           style="fill:none;stroke:#2a1b06;stroke-width:0.0529167;stroke-linecap:butt;stroke-linejoin:miter;stroke-miterlimit:4;stroke-dasharray:none;stroke-opacity:1"
           d="m 62.997875,12.526976 v 4.85692 l 1.676838,1.022401 -0.0068,5.896166 -1.670078,0.947295 V 30.31727 L 59.318364,28.782071 V 14.138349 l 3.679511,-1.611373"
           id="path967" />
      </g>
      <g
         id="g975"
         transform="rotate(45,-44.444716,4.4170921)"
         style="stroke:#2a1b06;stroke-width:0.0529167;stroke-miterlimit:4;stroke-dasharray:none;stroke-opacity:1">
        <path
           style="fill:none;stroke:#2a1b06;stroke-width:0.0529167;stroke-linecap:butt;stroke-linejoin:miter;stroke-miterlimit:4;stroke-dasharray:none;stroke-opacity:1"
           d="m 72.178588,14.138349 v 14.643722 l -3.67951,1.535199 V 25.249758 L 66.829,24.302463 66.8222,18.406297 68.499037,17.383896 v -4.85692 l 3.67951,1.611373"
           id="path971" />
        <path
           style="fill:none;stroke:#2a1b06;stroke-width:0.0529167;stroke-linecap:butt;stroke-linejoin:miter;stroke-miterlimit:4;stroke-dasharray:none;stroke-opacity:1"
           d="m 62.997875,12.526976 v 4.85692 l 1.676838,1.022401 -0.0068,5.896166 -1.670078,0.947295 V 30.31727 L 59.318364,28.782071 V 14.138349 l 3.679511,-1.611373"
           id="path973" />
      </g>
      <g
         id="g981"
         transform="rotate(45,11.125604,47.643313)"
         style="stroke:#2a1b06;stroke-width:0.0529167;stroke-miterlimit:4;stroke-dasharray:none;stroke-opacity:1">
        <path
           style="fill:none;stroke:#2a1b06;stroke-width:0.0529167;stroke-linecap:butt;stroke-linejoin:miter;stroke-miterlimit:4;stroke-dasharray:none;stroke-opacity:1"
           d="m 72.178588,14.138349 v 14.643722 l -3.67951,1.535199 V 25.249758 L 66.829,24.302463 66.8222,18.406297 68.499037,17.383896 v -4.85692 l 3.67951,1.611373"
           id="path977" />
        <path
           style="fill:none;stroke:#2a1b06;stroke-width:0.0529167;stroke-linecap:butt;stroke-linejoin:miter;stroke-miterlimit:4;stroke-dasharray:none;stroke-opacity:1"
           d="m 62.997875,12.526976 v 4.85692 l 1.676838,1.022401 -0.0068,5.896166 -1.670078,0.947295 V 30.31727 L 59.318364,28.782071 V 14.138349 l 3.679511,-1.611373"
           id="path979" />
      </g>
      <g
         id="g1009"
         transform="rotate(-45,88.053829,27.146627)"
         style="stroke:#2a1b06;stroke-width:0.0529167;stroke-miterlimit:4;stroke-dasharray:none;stroke-opacity:1">
        <path
           style="fill:none;stroke:#2a1b06;stroke-width:0.0529167;stroke-linecap:butt;stroke-linejoin:miter;stroke-miterlimit:4;stroke-dasharray:none;stroke-opacity:1"
           d="m 72.178588,14.138349 v 14.643722 l -3.67951,1.535199 V 25.249758 L 66.829,24.302463 66.8222,18.406297 68.499037,17.383896 v -4.85692 l 3.67951,1.611373"
           id="path1005" />
        <path
           style="fill:none;stroke:#2a1b06;stroke-width:0.0529167;stroke-linecap:butt;stroke-linejoin:miter;stroke-miterlimit:4;stroke-dasharray:none;stroke-opacity:1"
           d="m 62.997875,12.526976 v 4.85692 l 1.676838,1.022401 -0.0068,5.896166 -1.670078,0.947295 V 30.31727 L 59.318364,28.782071 V 14.138349 l 3.679511,-1.611373"
           id="path1007" />
      </g>
      <g
         id="g1015"
         transform="rotate(-45,157.93534,56.092496)"
         style="stroke:#2a1b06;stroke-width:0.0529167;stroke-miterlimit:4;stroke-dasharray:none;stroke-opacity:1">
        <path
           style="fill:none;stroke:#2a1b06;stroke-width:0.0529167;stroke-linecap:butt;stroke-linejoin:miter;stroke-miterlimit:4;stroke-dasharray:none;stroke-opacity:1"
           d="m 72.178588,14.138349 v 14.643722 l -3.67951,1.535199 V 25.249758 L 66.829,24.302463 66.8222,18.406297 68.499037,17.383896 v -4.85692 l 3.67951,1.611373"
           id="path1011" />
        <path
           style="fill:none;stroke:#2a1b06;stroke-width:0.0529167;stroke-linecap:butt;stroke-linejoin:miter;stroke-miterlimit:4;stroke-dasharray:none;stroke-opacity:1"
           d="m 62.997875,12.526976 v 4.85692 l 1.676838,1.022401 -0.0068,5.896166 -1.670078,0.947295 V 30.31727 L 59.318364,28.782071 V 14.138349 l 3.679511,-1.611373"
           id="path1013" />
      </g>
      <g
         id="g1021"
         transform="rotate(-45,98.756325,97.823947)"
         style="stroke:#2a1b06;stroke-width:0.0529167;stroke-miterlimit:4;stroke-dasharray:none;stroke-opacity:1">
        <path
           style="fill:none;stroke:#2a1b06;stroke-width:0.0529167;stroke-linecap:butt;stroke-linejoin:miter;stroke-miterlimit:4;stroke-dasharray:none;stroke-opacity:1"
           d="m 72.178588,14.138349 v 14.643722 l -3.67951,1.535199 V 25.249758 L 66.829,24.302463 66.8222,18.406297 68.499037,17.383896 v -4.85692 l 3.67951,1.611373"
           id="path1017" />
        <path
           style="fill:none;stroke:#2a1b06;stroke-width:0.0529167;stroke-linecap:butt;stroke-linejoin:miter;stroke-miterlimit:4;stroke-dasharray:none;stroke-opacity:1"
           d="m 62.997875,12.526976 v 4.85692 l 1.676838,1.022401 -0.0068,5.896166 -1.670078,0.947295 V 30.31727 L 59.318364,28.782071 V 14.138349 l 3.679511,-1.611373"
           id="path1019" />
      </g>
      <g
         id="g1027"
         transform="rotate(-45,146.46128,-15.598757)"
         style="stroke:#2a1b06;stroke-width:0.0529167;stroke-miterlimit:4;stroke-dasharray:none;stroke-opacity:1">
        <path
           style="fill:none;stroke:#2a1b06;stroke-width:0.0529167;stroke-linecap:butt;stroke-linejoin:miter;stroke-miterlimit:4;stroke-dasharray:none;stroke-opacity:1"
           d="m 72.178588,14.138349 v 14.643722 l -3.67951,1.535199 V 25.249758 L 66.829,24.302463 66.8222,18.406297 68.499037,17.383896 v -4.85692 l 3.67951,1.611373"
           id="path1023" />
        <path
           style="fill:none;stroke:#2a1b06;stroke-width:0.0529167;stroke-linecap:butt;stroke-linejoin:miter;stroke-miterlimit:4;stroke-dasharray:none;stroke-opacity:1"
           d="m 62.997875,12.526976 v 4.85692 l 1.676838,1.022401 -0.0068,5.896166 -1.670078,0.947295 V 30.31727 L 59.318364,28.782071 V 14.138349 l 3.679511,-1.611373"
           id="path1025" />
      </g>
      <g
         id="g1067"
         transform="rotate(-45,164.4637,125.04083)"
         style="stroke:#2a1b06;stroke-width:0.0529167;stroke-miterlimit:4;stroke-dasharray:none;stroke-opacity:1">
        <path
           style="fill:none;stroke:#2a1b06;stroke-width:0.0529167;stroke-linecap:butt;stroke-linejoin:miter;stroke-miterlimit:4;stroke-dasharray:none;stroke-opacity:1"
           d="m 72.178588,14.138349 v 14.643722 l -3.67951,1.535199 V 25.249758 L 66.829,24.302463 66.8222,18.406297 68.499037,17.383896 v -4.85692 l 3.67951,1.611373"
           id="path1063" />
        <path
           style="fill:none;stroke:#2a1b06;stroke-width:0.0529167;stroke-linecap:butt;stroke-linejoin:miter;stroke-miterlimit:4;stroke-dasharray:none;stroke-opacity:1"
           d="m 62.997875,12.526976 v 4.85692 l 1.676838,1.022401 -0.0068,5.896166 -1.670078,0.947295 V 30.31727 L 59.318364,28.782071 V 14.138349 l 3.679511,-1.611373"
           id="path1065" />
      </g>
      <g
         id="g1073"
         transform="rotate(45,54.116341,-36.408234)"
         style="stroke:#2a1b06;stroke-width:0.0529167;stroke-miterlimit:4;stroke-dasharray:none;stroke-opacity:1">
        <path
           style="fill:none;stroke:#2a1b06;stroke-width:0.0529167;stroke-linecap:butt;stroke-linejoin:miter;stroke-miterlimit:4;stroke-dasharray:none;stroke-opacity:1"
           d="m 72.178588,14.138349 v 14.643722 l -3.67951,1.535199 V 25.249758 L 66.829,24.302463 66.8222,18.406297 68.499037,17.383896 v -4.85692 l 3.67951,1.611373"
           id="path1069" />
        <path
           style="fill:none;stroke:#2a1b06;stroke-width:0.0529167;stroke-linecap:butt;stroke-linejoin:miter;stroke-miterlimit:4;stroke-dasharray:none;stroke-opacity:1"
           d="m 62.997875,12.526976 v 4.85692 l 1.676838,1.022401 -0.0068,5.896166 -1.670078,0.947295 V 30.31727 L 59.318364,28.782071 V 14.138349 l 3.679511,-1.611373"
           id="path1071" />
      </g>
      <g
         id="g1079"
         transform="rotate(-45,80.572996,-42.890578)"
         style="stroke:#2a1b06;stroke-width:0.0529167;stroke-miterlimit:4;stroke-dasharray:none;stroke-opacity:1">
        <path
           style="fill:none;stroke:#2a1b06;stroke-width:0.0529167;stroke-linecap:butt;stroke-linejoin:miter;stroke-miterlimit:4;stroke-dasharray:none;stroke-opacity:1"
           d="m 72.178588,14.138349 v 14.643722 l -3.67951,1.535199 V 25.249758 L 66.829,24.302463 66.8222,18.406297 68.499037,17.383896 v -4.85692 l 3.67951,1.611373"
           id="path1075" />
        <path
           style="fill:none;stroke:#2a1b06;stroke-width:0.0529167;stroke-linecap:butt;stroke-linejoin:miter;stroke-miterlimit:4;stroke-dasharray:none;stroke-opacity:1"
           d="m 62.997875,12.526976 v 4.85692 l 1.676838,1.022401 -0.0068,5.896166 -1.670078,0.947295 V 30.31727 L 59.318364,28.782071 V 14.138349 l 3.679511,-1.611373"
           id="path1077" />
      </g>
      <g
         id="g1085"
         transform="rotate(-45,212.34956,11.69306)"
         style="stroke:#2a1b06;stroke-width:0.0529167;stroke-miterlimit:4;stroke-dasharray:none;stroke-opacity:1">
        <path
           style="fill:none;stroke:#2a1b06;stroke-width:0.0529167;stroke-linecap:butt;stroke-linejoin:miter;stroke-miterlimit:4;stroke-dasharray:none;stroke-opacity:1"
           d="m 72.178588,14.138349 v 14.643722 l -3.67951,1.535199 V 25.249758 L 66.829,24.302463 66.8222,18.406297 68.499037,17.383896 v -4.85692 l 3.67951,1.611373"
           id="path1081" />
        <path
           style="fill:none;stroke:#2a1b06;stroke-width:0.0529167;stroke-linecap:butt;stroke-linejoin:miter;stroke-miterlimit:4;stroke-dasharray:none;stroke-opacity:1"
           d="m 62.997875,12.526976 v 4.85692 l 1.676838,1.022401 -0.0068,5.896166 -1.670078,0.947295 V 30.31727 L 59.318364,28.782071 V 14.138349 l 3.679511,-1.611373"
           id="path1083" />
      </g>
    </g>
  </g>
  <g
     inkscape:label="Logo"
     inkscape:groupmode="layer"
     id="layer1"
     sodipodi:insensitive="true">
    <g
       id="g3818"
       transform="translate(1.3769313,-0.11471302)">
      <g
         id="g3885"
         transform="translate(-1.884263)">
        <path
           fill="url(#p.6)"
           d="M 89.102965,10.275222 87.147051,6.7068383 V 41.538619 l -11.47936,6.51127 -0.04646,40.527573 11.52582,7.027519 v 33.384269 l 1.955914,-3.57855 z"
           fill-rule="evenodd"
           id="path3869"
           style="fill:#4e6366;fill-opacity:1;stroke:none;stroke-width:0.313211;stroke-linecap:square;stroke-miterlimit:10"
           sodipodi:nodetypes="ccccccccc" />
        <path
           fill="url(#p.7)"
           d="m 89.102965,125.4107 -1.955914,3.57855 25.291289,-11.07586 V 17.259097 L 87.147051,6.7068383 89.102965,10.275222 Z"
           fill-rule="evenodd"
           id="path3871"
           style="fill:#69919b;fill-opacity:1;stroke:none;stroke-width:0.313211;stroke-linecap:square;stroke-miterlimit:10"
           sodipodi:nodetypes="ccccccc" />
        <path
           fill="url(#p.8)"
           d="m 89.102965,125.4107 21.079045,-9.09156 -0.17496,-97.312615 -20.904085,-8.731303 v 32.392043 l -11.836388,6.763731 -0.01401,37.196664 11.850398,7.213924 z"
           fill-rule="evenodd"
           id="path3873"
           style="fill:url(#linearGradient3901);fill-opacity:1;stroke:none;stroke-width:0.313211;stroke-linecap:square;stroke-miterlimit:10;stroke-opacity:1"
           sodipodi:nodetypes="ccccccccc" />
        <path
           fill="url(#p.6)"
           d="M 47.378365,10.275222 49.334279,6.7068383 V 41.538619 l 11.47936,6.51127 0.04646,40.527573 -11.52582,7.027519 v 33.384269 l -1.955914,-3.57855 z"
           fill-rule="evenodd"
           id="path2081"
           style="fill:#4e6366;fill-opacity:1;stroke:none;stroke-width:0.313211;stroke-linecap:square;stroke-miterlimit:10"
           sodipodi:nodetypes="ccccccccc" />
        <path
           fill="url(#p.7)"
           d="m 47.378365,125.4107 1.955914,3.57855 -25.291285,-11.07586 V 17.259097 L 49.334279,6.7068383 47.378365,10.275222 Z"
           fill-rule="evenodd"
           id="path2090"
           style="fill:#69919b;fill-opacity:1;stroke:none;stroke-width:0.313211;stroke-linecap:square;stroke-miterlimit:10"
           sodipodi:nodetypes="ccccccc" />
        <path
           fill="url(#p.8)"
           d="m 47.378365,125.4107 -21.07904,-9.09156 0.174959,-97.312615 20.904081,-8.731303 v 32.392043 l 11.836388,6.763731 0.01401,37.196664 -11.850398,7.213924 z"
           fill-rule="evenodd"
           id="path2099"
           style="fill:url(#linearGradient3936);fill-opacity:1;stroke:none;stroke-width:0.313211;stroke-linecap:square;stroke-miterlimit:10;stroke-opacity:1"
           sodipodi:nodetypes="ccccccccc" />
      </g>
      <g
         id="g3846"
         transform="translate(-17.91452,0.57240135)">
        <path
           id="path3827-0"
           style="fill:#000000;fill-opacity:1;stroke:none;stroke-width:0.313211;stroke-linecap:square;stroke-miterlimit:10"
           d="m 65.002074,56.820728 v 3.67006 l 9.10332,8.619628 -9.10332,8.620146 v 3.670062 h 3.876249 L 78.950576,71.86322 h 10.641211 l 10.072256,9.537404 h 3.875727 v -3.670062 l -9.103316,-8.620146 9.103316,-8.619628 v -3.67006 H 99.664043 L 89.591787,66.35813 H 78.950576 L 68.878323,56.820728 Z" />
        <path
           id="path3827"
           style="fill:#555555;fill-opacity:1;stroke:none;stroke-width:0.313211;stroke-linecap:square;stroke-miterlimit:10"
           d="m 65.002074,53.150666 v 3.67006 l 9.10332,8.619628 -9.10332,8.620146 v 3.670062 h 3.876249 l 10.072253,-9.537404 h 10.641211 l 10.072254,9.537404 h 3.875729 V 74.0605 l -9.103316,-8.620146 9.103316,-8.619628 v -3.67006 H 99.664041 L 89.591787,62.688068 H 78.950576 L 68.878323,53.150666 Z" />
      </g>
    </g>
  </g>
  <g
     inkscape:groupmode="layer"
     id="layer2"
     inkscape:label="Safe Zones"
     style="display:none">
    <g
       inkscape:groupmode="layer"
       id="layer3"
       inkscape:label="Safe Circle"
       sodipodi:insensitive="true">
      <circle
         style="fill:none;fill-opacity:1;stroke:#000000;stroke-width:0.232503;stroke-opacity:1"
         id="path3766"
         cx="67.73333"
         cy="67.73333"
         r="67.73333" />
    </g>
    <g
       inkscape:groupmode="layer"
       id="layer8"
       inkscape:label="Safe Hex"
       style="display:inline"
       sodipodi:insensitive="true">
      <path
         sodipodi:type="star"
         style="display:inline;fill:none;fill-opacity:1;stroke:#000000;stroke-width:0.29909;stroke-opacity:1"
         id="path983"
         sodipodi:sides="6"
         sodipodi:cx="67.73333"
         sodipodi:cy="67.73333"
         sodipodi:r1="55.179173"
         sodipodi:r2="47.786572"
         sodipodi:arg1="-1.5707963"
         sodipodi:arg2="-1.0471975"
         inkscape:flatsided="true"
         inkscape:rounded="0"
         inkscape:randomized="0"
         d="m 67.733331,12.554157 47.786569,27.589588 -1e-5,55.179172 -47.786562,27.589583 -47.786564,-27.589585 10e-7,-55.179173 z" />
    </g>
  </g>
</svg>
